<svg height="512pt" viewBox="0 0 512 512" width="512pt" xmlns="http://www.w3.org/2000/svg"><path d="m377 120v362l-120 4.800781-257 10.199219v-362c0-8.402344 6.597656-15 15-15zm0 0" fill="#00607f"/><path d="m377 120v362l-120 4.800781v-366.800781zm0 0" fill="#002c3c"/><path d="m501.628906 44.429688-81.09375-39.023438c-3.617187-1.746094-7.734375-1.992188-11.46875-.632812-3.75 1.304687-6.828125 4.058593-8.554687 7.648437l-99.144531 206.074219 126.914062 13.007812 21.839844-45.394531-1.097656-16.042969 14.105468-11 13.003906-27.027344-1.09375-16.039062 14.101563-11.003906 19.503906-40.542969c3.589844-7.472656.457031-16.433594-7.015625-20.023437zm0 0" fill="#ffe477"/><path d="m435.066406 78.984375c-7.410156-3.589844-16.40625-.4375-20.023437 7.015625-3.589844 7.472656-.453125 16.4375 7.015625 20.023438l54.078125 26.015624 13.007812-27.042968zm0 0" fill="#ff9100"/><path d="m389.027344 140.066406c-3.589844 7.472656-.453125 16.4375 7.015625 20.027344l54.078125 26.015625 13.007812-27.042969-54.078125-26.015625c-7.398437-3.574219-16.390625-.421875-20.023437 7.015625zm0 0" fill="#ff9100"/><path d="m182 120v180h-90v-180l30-30h30zm0 0" fill="#75efff"/><path d="m182 120v180h-45v-210h15zm0 0" fill="#00ceee"/><path d="m182 120v-15c0-1.199219-.300781-3.601562-.902344-4.800781l-30-90c-1.796875-6-7.5-10.199219-14.097656-10.199219s-12.300781 4.199219-14.097656 10.199219l-30 90c-.601563 1.199219-.902344 3.601562-.902344 4.800781v15zm0 0" fill="#ffbcab"/><path d="m182 120v-15c0-1.199219-.300781-3.601562-.902344-4.800781l-30-90c-1.796875-6-7.5-10.199219-14.097656-10.199219v120zm0 0" fill="#ff9468"/><path d="m212 90h90v180h-90zm0 0" fill="#ececf1"/><path d="m257 90h45v180h-45zm0 0" fill="#babac0"/><path d="m508.699219 215.699219c-3-3.597657-7.199219-5.699219-11.699219-5.699219h-420c-6.898438 0-14.199219 4.800781-15.699219 11.699219l-61 272c-.902343 4.5.300781 9 3 12.601562 3 3.597657 7.199219 5.699219 11.699219 5.699219h422c6.898438 0 13.199219-4.800781 14.699219-11.699219l60-272c.902343-4.5-.300781-9-3-12.601562zm0 0" fill="#ffe477"/><path d="m511.699219 228.300781-60 272c-1.5 6.898438-7.800781 11.699219-14.699219 11.699219h-180v-302h240c4.5 0 8.699219 2.101562 11.699219 5.699219 2.699219 3.601562 3.902343 8.101562 3 12.601562zm0 0" fill="#ffb655"/><path d="m377 362h-120c-8.402344 0-15 6.597656-15 15v60c0 8.398438 6.597656 15 15 15h120c8.402344 0 15-6.601562 15-15v-60c0-8.402344-6.597656-15-15-15zm0 0" fill="#00607f"/><path d="m268.101562 5.097656c-2.699218-3.296875-6.902343-4.796875-11.101562-4.796875s-8.402344 1.5-11.101562 4.796875c-8.097657 9-48.898438 55.800782-48.898438 84.902344 0 33 27 60 60 60s60-27 60-60c0-29.101562-40.800781-75.902344-48.898438-84.902344zm0 0" fill="#ff728b"/><path d="m317 90c0 33-27 60-60 60v-149.699219c4.199219 0 8.402344 1.5 11.101562 4.796875 8.097657 9 48.898438 55.800782 48.898438 84.902344zm0 0" fill="#ff3f62"/><path d="m392 377v60c0 8.398438-6.597656 15-15 15h-120v-90h120c8.402344 0 15 6.597656 15 15zm0 0" fill="#002c3c"/></svg>