<svg id="Capa_1" enable-background="new 0 0 512 512" height="512" viewBox="0 0 512 512" width="512" xmlns="http://www.w3.org/2000/svg"><g><path d="m49.865 461.426-1.696-45.476c-.325-8.703-3.101-17.138-8.01-24.332l-29.754-43.604c-13.55-19.857-13.892-45.897-.868-66.103l51.469-79.936 33.32 115.712-13.456 143.625-27.546 3.092c-1.799.203-3.391-1.168-3.459-2.978z" fill="#f1d0a5"/><path d="m462.135 461.426 1.696-45.476c.325-8.703 3.101-17.138 8.01-24.332l29.754-43.604c13.55-19.857 13.892-45.897.868-66.103l-49.147-76.209-35.642 111.986 13.455 143.625 27.546 3.092c1.8.202 3.392-1.169 3.46-2.979z" fill="#f1d0a5"/><path d="m502.464 281.911-49.147-76.209-6.178 25.737 32.533 50.473c13.024 20.206 12.682 46.246-.868 66.103l-29.755 43.604c-4.909 7.194-7.686 15.628-8.01 24.331l-1.726 46.281 19.364 2.174c1.8.202 3.392-1.169 3.459-2.978l1.696-45.476c.325-8.703 3.101-17.138 8.01-24.332l29.754-43.604c13.55-19.857 13.892-45.898.868-66.104z" fill="#f1b986"/><path d="m431.099 328.096h-350.198c-12.995 0-23.529-10.534-23.529-23.529v-233.462c0-12.995 10.534-23.529 23.529-23.529h350.199c12.995 0 23.529 10.534 23.529 23.529v233.461c0 12.995-10.535 23.53-23.53 23.53z" fill="#365e7d"/><path d="m431.099 47.576h-15.977c12.995 0 23.529 10.535 23.529 23.529v233.461c0 12.995-10.534 23.529-23.529 23.529h15.977c12.995 0 23.53-10.534 23.53-23.529v-233.461c0-12.995-10.535-23.529-23.53-23.529z" fill="#2b4d66"/><path d="m420.871 80.053h-320.92c-.705 0-1.28.607-1.28 1.353v212.858c0 .746.574 1.353 1.28 1.353h320.92c.706 0 1.28-.607 1.28-1.353v-212.857c0-.746-.574-1.354-1.28-1.354z" fill="#ffe07d"/><path d="m420.871 80.053h-17.093c.706 0 1.281.607 1.281 1.353v212.858c0 .746-.574 1.353-1.281 1.353h17.093c.706 0 1.281-.607 1.281-1.353v-212.857c-.001-.746-.575-1.354-1.281-1.354z" fill="#ffd064"/><g><path d="m78.223 201.141c-4.268 0-7.726-3.459-7.726-7.726v-11.159c0-4.268 3.459-7.726 7.726-7.726 4.268 0 7.726 3.459 7.726 7.726v11.159c0 4.267-3.458 7.726-7.726 7.726z" fill="#2b4d66"/></g><path d="m116.604 454.72.769-33.077c.133-5.71 1.159-11.363 3.042-16.755 5.289-15.146 2.294-31.954-7.902-44.34-2.146-2.607-2.482-6.261-.846-9.216l43.331-78.288c3.514-6.349 2.352-14.263-2.838-19.335-6.498-6.349-16.956-6.077-23.115.602l-72.078 78.164 4.742 54.473 19.161 74.365 32.955-3.569c1.554-.169 2.742-1.462 2.779-3.024z" fill="#f1d0a5"/><path d="m154.997 273.043c3.514-6.349 2.352-14.263-2.838-19.334-5.855-5.721-14.914-6.048-21.157-1.175.465.364.918.753 1.35 1.175 5.19 5.071 6.352 12.986 2.838 19.334l-43.331 78.288c-1.635 2.955-1.3 6.609.847 9.216 10.196 12.387 13.191 29.194 7.902 44.341-1.883 5.392-2.909 11.046-3.042 16.755l-.548 23.587c-.163 6.992-5.482 12.782-12.435 13.535l-2.106.228c-1.13.122-1.888 1.218-1.605 2.319l32.955-3.569c1.553-.168 2.742-1.461 2.778-3.023l.746-32.106c.14-6.013 1.061-12.008 3.05-17.684 5.31-15.157 2.318-31.985-7.887-44.383-2.146-2.607-2.482-6.261-.847-9.216z" fill="#f1b986"/><path d="m395.396 454.72-.769-33.077c-.133-5.71-1.159-11.363-3.042-16.755-5.289-15.146-2.294-31.954 7.902-44.34 2.146-2.607 2.482-6.261.846-9.216l-43.331-78.288c-3.514-6.349-2.352-14.263 2.838-19.335 6.498-6.349 16.956-6.077 23.115.602l72.078 78.164-4.742 54.473-19.161 74.365-32.955-3.569c-1.554-.169-2.742-1.462-2.779-3.024z" fill="#f1d0a5"/><path d="m214.822 144.861h-76.869c-5.495 0-9.95-4.455-9.95-9.95v-23.074c0-5.495 4.455-9.95 9.95-9.95h76.869c5.495 0 9.95 4.455 9.95 9.95v23.074c0 5.495-4.455 9.95-9.95 9.95z" fill="#95d6a4"/><path d="m214.822 101.887h-19.752c5.495 0 9.95 4.455 9.95 9.95v23.074c0 5.495-4.455 9.95-9.95 9.95h19.752c5.495 0 9.95-4.455 9.95-9.95v-23.074c0-5.495-4.455-9.95-9.95-9.95z" fill="#78c2a4"/><g><path d="m380.595 113.734h-105.613c-4.268 0-7.726-3.459-7.726-7.726 0-4.268 3.459-7.726 7.726-7.726h105.614c4.268 0 7.726 3.459 7.726 7.726s-3.459 7.726-7.727 7.726z" fill="#365e7d"/></g><g><path d="m344.539 148.467h-69.557c-4.268 0-7.726-3.459-7.726-7.726s3.459-7.726 7.726-7.726h69.557c4.268 0 7.726 3.459 7.726 7.726s-3.459 7.726-7.726 7.726z" fill="#365e7d"/></g><g><path d="m276.238 262.711c-.985 0-1.986-.189-2.954-.59l-35.073-14.525c-3.942-1.633-5.814-6.153-4.182-10.096 1.633-3.942 6.148-5.816 10.096-4.182l35.073 14.525c3.942 1.633 5.814 6.153 4.182 10.096-1.232 2.975-4.11 4.772-7.142 4.772z" fill="#365e7d"/></g><path d="m264.008 235.992-14.961 14.961c-5.741 5.741-15.049 5.741-20.79 0l-9.459-9.459c-5.741-5.741-5.741-15.049 0-20.79l14.961-14.961z" fill="#ffc250"/><path d="m237.137 204.343h13.761v42.779h-13.761z" fill="#ebb044" transform="matrix(.707 -.707 .707 .707 -88.146 238.662)"/><path d="m264.008 235.992 38.919-19.276-49.893-49.893-19.276 38.92z" fill="#e27d47"/><path d="m245.531 181.972 42.247 42.247 15.149-7.503-49.893-49.893z" fill="#dd544f"/><g><path d="m306.331 227.846c-1.978 0-3.955-.755-5.464-2.263l-56.7-56.701c-3.017-3.018-3.017-7.909 0-10.928 3.019-3.017 7.91-3.015 10.928 0l56.7 56.701c3.017 3.018 3.017 7.909 0 10.928-1.51 1.509-3.488 2.263-5.464 2.263z" fill="#2b4d66"/></g></g></svg>