<svg id="Layer_1" enable-background="new 0 0 256 256" height="512" viewBox="0 0 256 256" width="512" xmlns="http://www.w3.org/2000/svg"><g><path d="m23.642 132.953v49.975c0 5.719 4.634 10.353 10.353 10.353s10.353-4.634 10.353-10.353v-49.975z" fill="#3193f3"/><path d="m58.924 143.358h-20.83c-13.256 0-24.002-10.746-24.002-24.002 0-13.256 10.746-24.002 24.002-24.002h20.83z" fill="#f9d335"/><path d="m152.252 67.235v104.243c0 3.872-4.432 6.11-7.518 3.77-27.159-20.587-42.038-31.889-76.478-31.889h-9.328v-48.006h9.328c34.44 0 49.319-11.302 76.478-31.889 3.086-2.339 7.518-.102 7.518 3.771z" fill="#5fcdff"/><path d="m51.994 143.361h-13.903c-13.254 0-23.996-10.751-23.996-24.005 0-6.627 2.688-12.624 7.025-16.97 4.347-4.347 10.344-7.035 16.97-7.035h13.903c-6.627 0-12.624 2.688-16.97 7.035-4.338 4.347-7.025 10.344-7.025 16.97 0 13.254 10.742 24.005 23.996 24.005z" fill="#f9e27d"/><path d="m152.25 67.23v104.251c0 3.865-4.43 6.108-7.517 3.763-2.206-1.668-4.328-3.281-6.386-4.82v-102.137c2.058-1.539 4.18-3.151 6.386-4.82 3.087-2.345 7.517-.102 7.517 3.763z" fill="#30b6ff"/><g><path d="m183.547 137.272v36.252c0 1.841 2.036 2.947 3.584 1.952l18.779-12.099 16.687 11.811c1.539 1.092 3.667-.009 3.667-1.896v-36.02z" fill="#ff4a73"/><circle cx="204.905" cy="112.414" fill="#44c7b6" r="37.003"/><path d="m222.711 106.27-9.751-1.417c-.729-.106-1.36-.564-1.686-1.225l-4.361-8.835c-.821-1.665-3.195-1.665-4.017 0l-4.361 8.835c-.326.661-.957 1.119-1.686 1.225l-9.751 1.417c-1.837.267-2.57 2.524-1.241 3.82l7.056 6.878c.528.514.769 1.256.644 1.982l-1.666 9.711c-.314 1.829 1.606 3.225 3.249 2.361l8.721-4.585c.652-.343 1.432-.343 2.084 0l8.721 4.585c1.643.864 3.563-.532 3.25-2.361l-1.666-9.711c-.125-.726.116-1.468.644-1.982l7.056-6.878c1.331-1.295.598-3.553-1.239-3.82z" fill="#f9d335"/><path d="m210.869 148.929c-1.94.318-3.936.485-5.964.485-20.438 0-37.002-16.565-37.002-37.002s16.565-37.002 37.002-37.002c2.028 0 4.024.167 5.964.485-17.599 2.847-31.038 18.108-31.038 36.517 0 18.41 13.44 33.67 31.038 36.517z" fill="#4bdbc3"/></g><g fill="#5f266d"><path d="m106.663 102.003c-10.596 3.781-20.263 4.824-20.469 4.846-5.024.511-4.611 7.98.4 7.98.135 0 .272-.007.41-.021.433-.044 10.737-1.126 22.348-5.271 2.081-.742 3.166-3.031 2.423-5.111-.744-2.082-3.037-3.167-5.112-2.423z"/><path d="m125.042 91.824c-1.649 1.456-3.537 2.851-5.613 4.149-1.873 1.171-2.442 3.639-1.271 5.512.759 1.214 2.062 1.88 3.396 1.88.724 0 1.458-.197 2.117-.609 2.446-1.529 4.689-3.189 6.666-4.934 1.656-1.462 1.813-3.99.352-5.646-1.463-1.656-3.99-1.814-5.647-.352z"/><path d="m189.459 119.184-1.509 8.798c-.875 5.094 4.477 8.986 9.053 6.579l7.902-4.154 7.902 4.154c4.574 2.405 9.926-1.482 9.053-6.578l-1.51-8.798 6.394-6.232c3.701-3.608 1.657-9.899-3.458-10.643l-8.834-1.283-3.952-8.005c-1.058-2.146-3.201-3.479-5.594-3.479h-.001c-2.392 0-4.536 1.332-5.596 3.479l-3.951 8.005-8.834 1.283c-2.368.344-4.298 1.972-5.037 4.247s-.134 4.726 1.579 6.396zm15.446-19.424 2.782 5.638c1.798 3.638 4.953 3.45 10.918 4.316-7.481 7.294-7.033 5.611-5.233 16.105-9.258-4.867-7.523-4.947-16.935 0 1.768-10.304 2.381-8.684-5.232-16.105 10.501-1.526 9.066-.565 13.7-9.954z"/><path d="m179.547 144.598v28.925c0 4.999 5.545 8.02 9.75 5.314l16.507-10.635 14.477 10.247c4.176 2.963 9.983-.019 9.983-5.159v-28.693c9.518-7.515 15.645-19.145 15.645-32.185 0-22.609-18.394-41.003-41.003-41.003-38.757 0-55.829 49.13-25.359 73.189zm42.717 25.454-14.044-9.94c-1.331-.944-3.105-.983-4.477-.098l-16.196 10.435v-20.901c10.709 5.026 23.451 5.288 34.717 0zm-17.359-90.643c18.198 0 33.003 14.805 33.003 33.003s-14.805 33.003-33.003 33.003-33.003-14.805-33.003-33.003c0-18.197 14.805-33.003 33.003-33.003z"/><path d="m172.275 59.581c1.732 0-3.319 2.965 70.627-45.645 1.846-1.213 2.358-3.693 1.146-5.54-1.214-1.846-3.695-2.36-5.54-1.145l-68.434 44.987c-1.846 1.213-2.358 3.693-1.146 5.54.769 1.169 2.046 1.803 3.347 1.803z"/><path d="m173.916 75.518 59.102-26.655c2.014-.908 2.91-3.277 2.002-5.291-.909-2.014-3.275-2.909-5.291-2.002l-59.102 26.655c-2.014.908-2.91 3.277-2.002 5.291.909 2.014 3.276 2.91 5.291 2.002z"/><path d="m242.902 242.064-68.434-44.987c-1.846-1.214-4.326-.701-5.54 1.145-1.213 1.846-.7 4.326 1.146 5.54 73.756 48.485 68.894 45.645 70.627 45.645 3.95 0 5.518-5.163 2.201-7.343z"/><path d="m173.916 180.483c-2.015-.908-4.382-.012-5.291 2.002-.908 2.014-.012 4.383 2.002 5.291l59.102 26.655c.534.241 1.093.354 1.643.354 1.524 0 2.98-.876 3.648-2.356.908-2.014.012-4.383-2.002-5.291z"/><path d="m151.41 59.427c-2.972-1.476-6.455-1.15-9.164.904-43.034 32.619-46.555 31.022-104.152 31.022-25.726 0-37.834 32.014-18.454 49.037v42.54c0 7.913 6.438 14.35 14.35 14.35 7.918 0 14.36-6.437 14.36-14.35v-35.572c45.975 0 51.732-.938 93.968 31.077 5.704 4.325 13.934.234 13.934-6.958v-104.242c0-3.332-1.856-6.323-4.842-7.808zm-111.06 123.503c0 3.501-2.853 6.35-6.36 6.35-3.501 0-6.35-2.849-6.35-6.35v-37.604c5.506 2.225 9.758 2.032 12.71 2.032zm14.574-43.572h-16.83c-11.029 0-20.002-8.973-20.002-20.002s8.973-20.002 20.002-20.002h16.83zm93.328 32.119c0 .294-.135.51-.401.642-.38.188-.62.001-.774-.116-32.172-24.386-44.75-32.645-84.148-32.645v-40.005c39.613 0 52.186-8.417 84.223-32.701.081-.061.322-.246.7-.06.267.132.401.349.401.643v104.242z"/></g></g></svg>