<svg id="Capa_1" enable-background="new 0 0 512 512" height="512" viewBox="0 0 512 512" width="512" xmlns="http://www.w3.org/2000/svg"><g><g><g><g><g><g><circle cx="256" cy="256" fill="#ffce00" r="256"/></g></g></g></g></g><path d="m512 256c0-7.317-.307-14.562-.909-21.724l-124.893-124.892 3.415 60.767-93.049-93.049-88.877 27.344-18.838 175.153-66.465 40.794 32.597 32.597-2.191 38.27h-52.524l117.975 117.975c12.322 1.821 24.93 2.765 37.759 2.765 141.385 0 256-114.615 256-256z" fill="#ffa300"/><g><path d="m296.564 77.102h-104.579v138.131c-14.717-3.22-31.615-1.657-47.733 5.496-34.6 15.355-52.508 50.653-39.999 78.84s50.699 38.59 85.299 23.235c27.167-12.056 44.043-36.407 43.986-59.956v-133.945h63.027v-51.801z" fill="#707789"/></g><g><path d="m211.443 77.102v231.517c14.027-12.733 22.134-29.443 22.094-45.771v-133.945h63.027v-51.801z" fill="#555a66"/></g><g><path d="m406.521 229.672h-90.291v119.26c-12.707-2.78-27.295-1.431-41.212 4.745-29.873 13.257-45.335 43.732-34.535 68.069 10.8 24.336 43.772 33.318 73.645 20.06 23.455-10.409 38.026-31.433 37.977-51.765v-115.645h54.416z" fill="#707789"/></g><g><path d="m333.94 229.672v199.04c11.548-10.882 18.198-24.932 18.164-38.671v-115.645h54.416v-44.724z" fill="#555a66"/></g><g><path d="m151.851 441.228c-2.185-5.988-3.894-10.986-5.267-15.001-7.329-21.43-7.329-21.43-28.757-28.76-4.021-1.375-9.023-3.085-15.006-5.268l-2.574-.939 2.574-.939c5.917-2.159 10.92-3.871 14.94-5.246 21.492-7.35 21.492-7.35 28.822-28.781 1.372-4.012 3.079-9.005 5.267-15.002l.939-2.575.939 2.575c2.166 5.938 3.882 10.954 5.261 14.984 7.335 21.448 7.335 21.448 28.765 28.778 4.084 1.397 9.087 3.109 15.004 5.268l2.575.939-2.575.939c-5.964 2.176-10.977 3.89-15.004 5.267-21.43 7.329-21.43 7.329-28.758 28.758-1.38 4.035-3.098 9.057-5.268 15.004l-.939 2.575z" fill="#fff"/></g><g><path d="m385.259 211.876c-2.19-6.004-3.896-10.993-5.267-15.002-7.329-21.43-7.329-21.43-28.758-28.759-4.081-1.396-9.086-3.108-15.005-5.268l-2.574-.939 2.574-.939c5.917-2.159 10.92-3.871 14.94-5.246 21.492-7.35 21.492-7.35 28.822-28.781 1.37-4.008 3.076-8.998 5.267-15.002l.939-2.575.939 2.575c2.166 5.938 3.882 10.954 5.261 14.984 7.335 21.448 7.335 21.448 28.765 28.778 4.042 1.382 9.062 3.099 15.004 5.267l2.574.939-2.574.939c-5.917 2.159-10.92 3.871-14.94 5.246-21.493 7.35-21.493 7.35-28.822 28.781-1.404 4.103-3.113 9.099-5.267 15.002l-.939 2.575z" fill="#e9edf5"/></g></g></svg>